<svg height='300px' width='300px'  fill="#000000" xmlns="http://www.w3.org/2000/svg" xmlns:xlink="http://www.w3.org/1999/xlink" version="1.1" x="0px" y="0px" viewBox="0 0 139 139" enable-background="new 0 0 139 139" xml:space="preserve"><path d="M69.498,11.666c-31.94,0-57.833,25.894-57.833,57.834c0,31.94,25.893,57.834,57.833,57.834s57.836-25.895,57.836-57.834  C127.334,37.559,101.438,11.666,69.498,11.666z M94.672,99.129H38.944c-1.535,0-2.778-1.242-2.778-2.777V42.647  c0-1.534,1.243-2.777,2.778-2.777h61.111c1.535,0,2.778,1.243,2.778,2.777v29.72h-4.162h-2.37V46.302H42.635V82.17H45.7  l12.384-19.312l8.276,12.904l0,0l4.11,6.408h3.563l-5.892-9.187l3.84-5.988l9.732,15.174h3.924v3.229v6.328v4h4h5.033V99.129z   M91.579,58.335c0,3.174-2.574,5.748-5.748,5.748s-5.748-2.574-5.748-5.748s2.574-5.748,5.748-5.748S91.579,55.162,91.579,58.335z   M104.998,91.727v9.031h-6.326v-1.629v-7.402h-9.033v-6.328h9.033v-9.031h4.162h2.164v9.031h9.032v6.328H104.998z"></path></svg>