<svg xmlns="http://www.w3.org/2000/svg" enable-background="new 0 0 3591.149 3075.098" viewBox="0 0 3591.149 3075.098"><rect width="212.076" height="205.007" x="282.768" y="1138.14" fill="#282d35"/><rect width="205.007" height="205.007" x="622.089" y="1138.14" fill="#282d35"/><rect width="205.007" height="212.076" x="282.768" y="1463.323" fill="#282d35"/><rect width="212.076" height="212.076" x="622.089" y="1463.323" fill="#282d35"/><rect width="205.007" height="205.007" x="282.768" y="1802.644" fill="#282d35"/><rect width="212.076" height="205.007" x="622.089" y="1802.644" fill="#282d35"/><rect width="205.007" height="212.076" x="282.768" y="2120.757" fill="#282d35"/><rect width="212.076" height="212.076" x="622.089" y="2120.757" fill="#282d35"/><rect width="205.007" height="205.007" x="282.768" y="2460.079" fill="#282d35"/><rect width="212.076" height="205.007" x="622.089" y="2460.079" fill="#282d35"/><path fill="#282d35" d="M3591.149,812.957h-982.617V0H982.618v812.957H0v2262.141h3591.149V812.957z M982.618,2947.853
			H120.176V940.203h862.441V2947.853z M2050.065,2954.922h-508.982v-742.265h508.982V2954.922z M1420.907,2085.411v869.51h-311.044
			V120.176h1371.423l-7.069,2834.746h-296.906v-869.51H1420.907z M3463.904,2947.853h-855.372V940.203h855.372V2947.853z"/><rect width="205.007" height="205.007" x="2764.054" y="1138.14" fill="#282d35"/><rect width="212.076" height="205.007" x="3096.306" y="1138.14" fill="#282d35"/><rect width="212.076" height="212.076" x="2756.984" y="1463.323" fill="#282d35"/><rect width="205.007" height="212.076" x="3103.375" y="1463.323" fill="#282d35"/><rect width="212.076" height="205.007" x="2756.984" y="1802.644" fill="#282d35"/><rect width="205.007" height="205.007" x="3103.375" y="1802.644" fill="#282d35"/><rect width="212.076" height="212.076" x="2756.984" y="2120.757" fill="#282d35"/><rect width="205.007" height="212.076" x="3103.375" y="2120.757" fill="#282d35"/><rect width="212.076" height="205.007" x="2756.984" y="2460.079" fill="#282d35"/><rect width="205.007" height="205.007" x="3103.375" y="2460.079" fill="#282d35"/><rect width="212.076" height="205.007" x="1272.454" y="996.756" fill="#282d35"/><rect width="212.076" height="205.007" x="2092.48" y="996.756" fill="#282d35"/><rect width="212.076" height="212.076" x="1272.454" y="1321.939" fill="#282d35"/><rect width="205.007" height="212.076" x="2099.55" y="1321.939" fill="#282d35"/><rect width="212.076" height="205.007" x="1272.454" y="1661.26" fill="#282d35"/><rect width="205.007" height="205.007" x="2099.55" y="1661.26" fill="#282d35"/><rect width="212.076" height="212.076" x="1682.467" y="989.687" fill="#282d35"/><rect width="212.076" height="205.007" x="1272.454" y="664.504" fill="#282d35"/><rect width="212.076" height="205.007" x="2092.48" y="664.504" fill="#282d35"/><rect width="212.076" height="205.007" x="1682.467" y="664.504" fill="#282d35"/><rect width="212.076" height="205.007" x="1272.454" y="332.252" fill="#282d35"/><rect width="212.076" height="205.007" x="2092.48" y="332.252" fill="#282d35"/><rect width="212.076" height="205.007" x="1682.467" y="332.252" fill="#282d35"/><rect width="212.076" height="205.007" x="1682.467" y="1321.939" fill="#282d35"/><rect width="212.076" height="212.076" x="1682.467" y="1654.191" fill="#282d35"/></svg>